<?xml version="1.0" standalone="no"?>
<!DOCTYPE svg PUBLIC "-//W3C//DTD SVG 1.1//EN" "http://www.w3.org/Graphics/SVG/1.1/DTD/svg11.dtd" >
<svg xmlns="http://www.w3.org/2000/svg">
<metadata>
Created by FontForge 20120731 at Wed Oct 12 11:44:37 2016
 By admin
</metadata>
<defs>
<font id="iconfont" horiz-adv-x="1024" >
  <font-face 
    font-family="iconfont"
    font-weight="500"
    font-stretch="normal"
    units-per-em="1024"
    panose-1="2 0 6 3 0 0 0 0 0 0"
    ascent="896"
    descent="-128"
    x-height="792"
    bbox="0 -212 1096 896"
    underline-thickness="50"
    underline-position="-100"
    unicode-range="U+0078-F0041"
  />
<missing-glyph horiz-adv-x="374" 
d="M34 0v682h272v-682h-272zM68 34h204v614h-204v-614z" />
    <glyph glyph-name=".notdef" horiz-adv-x="374" 
d="M34 0v682h272v-682h-272zM68 34h204v614h-204v-614z" />
    <glyph glyph-name=".null" horiz-adv-x="0" 
 />
    <glyph glyph-name="nonmarkingreturn" horiz-adv-x="341" 
 />
    <glyph glyph-name="x" unicode="x" horiz-adv-x="1001" 
d="M281 543q-27 -1 -53 -1h-83q-18 0 -36.5 -6t-32.5 -18.5t-23 -32t-9 -45.5v-76h912v41q0 16 -0.5 30t-0.5 18q0 13 -5 29t-17 29.5t-31.5 22.5t-49.5 9h-133v-97h-438v97zM955 310v-52q0 -23 0.5 -52t0.5 -58t-10.5 -47.5t-26 -30t-33 -16t-31.5 -4.5q-14 -1 -29.5 -0.5
t-29.5 0.5h-32l-45 128h-439l-44 -128h-29h-34q-20 0 -45 1q-25 0 -41 9.5t-25.5 23t-13.5 29.5t-4 30v167h911zM163 247q-12 0 -21 -8.5t-9 -21.5t9 -21.5t21 -8.5q13 0 22 8.5t9 21.5t-9 21.5t-22 8.5zM316 123q-8 -26 -14 -48q-5 -19 -10.5 -37t-7.5 -25t-3 -15t1 -14.5
t9.5 -10.5t21.5 -4h37h67h81h80h64h36q23 0 34 12t2 38q-5 13 -9.5 30.5t-9.5 34.5q-5 19 -11 39h-368zM336 498v228q0 11 2.5 23t10 21.5t20.5 15.5t34 6h188q31 0 51.5 -14.5t20.5 -52.5v-227h-327z" />
    <glyph glyph-name="uniE603" unicode="&#xe603;" horiz-adv-x="1078" 
d="M537 896h3q18 -17 529 -486l8 12v-10q-16 -8 -36 -10t-45 -0.5t-38 0.5q-1 -54 -0.5 -245.5t0.5 -245.5q1 -23 -15 -39h-793q-20 14 -17 38v246v246q-9 0 -40.5 -0.5t-52 1t-40.5 5.5v4q11 -1 26 14t17 16q64 59 233.5 214t260.5 240zM426 271q-1 -62 0 -103h102v103
h-102zM562 270q1 -42 0 -102h103v103q-69 0 -103 -1zM426 135v-103h102v102q-75 0 -102 1zM562 134q1 -67 0 -101q13 -1 103 -1v103q-35 -1 -103 -1z" />
    <glyph glyph-name="uniE607" unicode="&#xe607;" 
d="M864 -148h-704q-20 0 -34 14t-14 34v752q0 20 14 34t34 14h160v-48h-160v-752h704v752h-160v48h160q20 0 34 -14t14 -34v-752q0 -20 -14 -34t-34 -14zM368 748h288v-96h-288v96zM336 140h368q7 0 11.5 -4.5t4.5 -11.5v-16q0 -7 -4.5 -11.5t-11.5 -4.5h-368
q-7 0 -11.5 4.5t-4.5 11.5v16q0 7 4.5 11.5t11.5 4.5zM320 284q0 7 4.5 11.5t11.5 4.5h368q7 0 11.5 -4.5t4.5 -11.5v-16q0 -7 -4.5 -11.5t-11.5 -4.5h-368q-7 0 -11.5 4.5t-4.5 11.5v16zM720 444v-16q0 -7 -4.5 -11.5t-11.5 -4.5h-368q-7 0 -11.5 4.5t-4.5 11.5v16
q0 7 4.5 11.5t11.5 4.5h368q7 0 11.5 -4.5t4.5 -11.5z" />
    <glyph glyph-name="uniE609" unicode="&#xe609;" horiz-adv-x="1025" 
d="M535 17h3q10 0 21 6t15.5 10t6.5 6q275 316 275 522q0 92 -38 167.5t-113.5 121.5t-175.5 46q-89 0 -165.5 -45.5t-122 -123t-45.5 -166.5q0 -38 10 -79t24 -76t40 -78t46 -72.5t54 -72t53 -64.5t54 -62l15 -18q22 -22 43 -22zM529 841q68 0 121.5 -24t85.5 -64t48.5 -89
t16.5 -103q0 -185 -261 -485q-1 -1 -4 -3l-3 3l-15 17q-38 44 -59.5 69.5t-58.5 72t-58.5 81.5t-45 79t-34.5 85.5t-11 80.5q0 114 82.5 197t195.5 83zM692 565q0 68 -48.5 116.5t-117 48.5t-116.5 -48.5t-48 -116.5t48 -116.5t116.5 -48.5t117 48.5t48.5 116.5zM416 566.5
q0 45.5 32 77.5t77.5 32t78 -32t32.5 -78q0 -45 -32 -78t-77 -33q-46 0 -78.5 33t-32.5 78.5zM1022.5 29.5q-4.5 10.5 -17 15t-24.5 0.5l-356 -111l-219 146l-390 -116q-11 -5 -14.5 -16t2.5 -20t17 -12q14 -5 27 1l345 100l216 -145l394 123q12 4 18 14t1.5 20.5z" />
    <glyph glyph-name="uniE60C" unicode="&#xe60c;" horiz-adv-x="1096" 
d="M952 657h-126q-10 94 -82 160q-78 79 -198 79q-107 0 -187 -69t-93 -170h-126q-59 0 -99.5 -38.5t-40.5 -94.5v-522q0 -54 40.5 -92t99.5 -38h816q57 0 98.5 38.5t41.5 94.5v519q-3 56 -44 94.5t-100 38.5zM546 835q82 0 141.5 -50t70.5 -125h-423q10 73 70 124t141 51z
M952 -67h-812q-31 0 -51.5 20t-20.5 49v239q56 -45 127 -45h710q70 0 126 45v-239q-3 -27 -26 -48t-53 -21zM990 299q-34 -34 -89 -34h-710q-49 0 -89 34q-37 37 -37 82v143q0 28 21.5 48t50.5 20h815q31 0 51.5 -20t20.5 -48v-143q5 -48 -34 -82zM990 299zM546 531
q-49 0 -82.5 -31.5t-33.5 -77.5t33.5 -78t82.5 -32t82.5 32t33.5 78t-33.5 77.5t-82.5 31.5zM546 374q-20 0 -34 13.5t-14 34t14 34t34.5 13.5t34 -13.5t13.5 -34t-13.5 -34t-34.5 -13.5zM546 374z" />
    <glyph glyph-name="uniE60F" unicode="&#xe60f;" 
d="M148 246h-41v75h42v-74q5 4 10 6l2 9l21 63q6 18 17 34h-199v-255h79q13 102 69 142zM851 -116q24 7 54 -17.5t51 -68.5l56 24q-16 45 -13.5 83t23.5 51l-57 93h-156zM924 -49q10 4 19.5 0t14 -13.5t0.5 -19.5t-14 -14t-19.5 0t-14 13.5t-0.5 19.5t14 14zM664 752
q-12 29 -41 40.5t-57.5 -0.5t-40.5 -41t0 -58l119 -278h164zM1024 104v255h-561l-10 -32q15 -45 0 -91l-18 -57l-20 -36q5 -19 7 -39h602zM917 321v-75h-42v75h42zM533 186h-42v135h42v-135zM661 246h-42v75h42v-75zM789 186h-42v135h42v-135zM318 49q-40 55 -111 62
q-15 1 -31 0q-39 -5 -59.5 -36.5t-21 -74t4 -84.5t12.5 -71l8 -29q4 2 10 4.5t24.5 11.5t36 18.5t40 24t40 29t33.5 32.5t23.5 36t6 38t-15.5 39zM292 352q-65 6 -94 -147q-8 -45 -8 -61h19q73 -5 122 -57l37 69q72 151 15 175l135 408q6 18 -3 35.5t-27 23.5q-10 3 -20 2
q-30 -4 -39 -32z" />
    <glyph glyph-name="uniE615" unicode="&#xe615;" 
d="M861 609h-688q-46 0 -79 -33t-33 -79v-424q0 -46 33 -79t79 -33h688q46 0 79 33t33 79v424q0 46 -33 79t-79 33zM909 73q0 -20 -14 -34t-34 -14h-688q-20 0 -34 14t-14 34v424q0 20 14 34t34 14h688q20 0 34 -14t14 -34v-424zM666 312q10 0 17.5 7.5t7.5 17.5t-7.5 17.5
t-17.5 7.5h-94l96 96q7 7 7 17.5t-7.5 18t-17.5 7.5t-18 -8l-114 -114l-114 114q-7 8 -17.5 8t-17.5 -7.5t-7 -18t7 -17.5l96 -96h-97q-10 0 -17.5 -7.5t-7.5 -17.5t7.5 -17.5t17.5 -7.5h124v-55h-124q-10 0 -17.5 -7.5t-7.5 -18t7.5 -17.5t17.5 -7h124v-119
q0 -10 7.5 -17.5t17.5 -7.5t17.5 7.5t7.5 17.5v119h124q10 0 17.5 7t7.5 17.5t-7.5 18t-17.5 7.5h-124v55h124zM176 649h682q13 0 22.5 9.5t9.5 22.5t-9.5 22.5t-22.5 9.5h-682q-13 0 -22.5 -9.5t-9.5 -22.5t9.5 -22.5t22.5 -9.5zM261 751h512q13 0 22.5 9.5t9.5 23
t-9.5 22.5t-22.5 9h-512q-13 0 -22.5 -9t-9.5 -22.5t9.5 -23t22.5 -9.5z" />
    <glyph glyph-name="uniE61A" unicode="&#xe61a;" 
d="M418 320h320q13 0 22.5 9t9.5 22.5t-9.5 23t-22.5 9.5h-320q-13 0 -22.5 -9.5t-9.5 -23t9.5 -22.5t22.5 -9zM834 64zM770 63.5q0 26.5 18.5 45.5t45 19t45.5 -19t19 -45.5t-19 -45t-45.5 -18.5t-45 18.5t-18.5 45zM258 64zM194 63.5q0 26.5 18.5 45.5t45 19t45.5 -19
t19 -45.5t-19 -45t-45.5 -18.5t-45 18.5t-18.5 45zM418 448h320q13 0 22.5 9t9.5 22.5t-9.5 23t-22.5 9.5h-320q-13 0 -22.5 -9.5t-9.5 -23t9.5 -22.5t22.5 -9zM834 640h-416q-13 0 -22.5 -9.5t-9.5 -23t9.5 -22.5t22.5 -9h384q13 0 22.5 -9.5t9.5 -22.5v-256
q0 -14 -9.5 -23t-22.5 -9h-448q-13 0 -22.5 9t-9.5 23v415q0 27 -19 45.5t-45 18.5h-96q-13 0 -22.5 -9t-9.5 -22.5t9.5 -23t22.5 -9.5h64q13 0 22.5 -9t9.5 -22v-416q0 -27 18.5 -45.5t45.5 -18.5h512q26 0 45 18.5t19 45.5v320q0 26 -19 45t-45 19z" />
    <glyph glyph-name="uniE61F" unicode="&#xe61f;" 
d="M512 785q-99 0 -188.5 -38.5t-154.5 -103.5t-103.5 -154.5t-38.5 -188.5t38.5 -188.5t103.5 -154.5t154.5 -103.5t188.5 -38.5t188.5 38.5t154.5 103.5t103.5 154.5t38.5 188.5t-38.5 188.5t-103.5 154.5t-154.5 103.5t-188.5 38.5zM512 -131q-117 0 -216.5 57.5
t-157 157t-57.5 216.5t57.5 216.5t157 157t216.5 57.5t216.5 -57.5t157 -157t57.5 -216.5t-57.5 -216.5t-157 -157t-216.5 -57.5zM404 623h216l-54 -107h-108zM409 223l206 -150l32 38l-7 25l-212 154zM591 306l-52 183h-54l-25 -88zM403 201l-26 -90l135 -161l89 106z
M454 379l-19 -67l195 -142l-29 102z" />
    <glyph glyph-name="uniE625" unicode="&#xe625;" 
d="M826 -128h-628q-81 0 -139.5 58.5t-58.5 139.5v628q0 81 58.5 139.5t139.5 58.5h631q79 0 137 -58.5t58 -139.5v-631q0 -79 -58.5 -137t-139.5 -58zM198 842q-60 0 -102 -42t-42 -102v-631q0 -60 42 -102t102 -42h631q60 0 102 42t42 102v631q0 60 -42 102t-102 42h-631z
M259 391l211 -119q20 -10 42 -10q24 0 38 10l208 118v-252q0 -30 -71 -58.5t-178 -28.5t-178.5 28.5t-71.5 58.5v3v250zM216 415l-110 62q-26 15 -26 38t26 39l361 204q17 10 42 10t41 -10l362 -204q26 -16 26 -39t-26 -38l-110 -63q1 -3 1 -8v-272v-3q2 -39 -41.5 -69
t-109.5 -44.5t-140 -14.5q-73 0 -138.5 14.5t-111 44t-48.5 69.5v3v272q0 5 2 9zM138 515l355 -198q7 -5 19 -5t19 5l355 198l-355 199q-7 4 -19 4t-19 -4zM912 96q-10 0 -16 6.5t-6 15.5v282q0 10 6 16t16 6t16 -6t6 -16v-282q3 -9 -4.5 -15.5t-17.5 -6.5z" />
    <glyph glyph-name="uniE628" unicode="&#xe628;" 
d="M510 800q-136 0 -251 -67t-182 -182t-67 -251t67 -251t182 -182t251 -67t251 67t182 182t67 251t-67 251t-182 182t-251 67zM490 412q-4 -32 -4 -75q0 -44 2 -70l-35 -1q1 21 1 64q0 41 -4 83zM306 157q16 1 49 11v126q-25 0 -43 -3v41q18 -3 43 -3v110q-27 0 -47 -3v43
q24 -4 69.5 -4t68.5 4v-43q-24 3 -52 3v-110q24 1 39 3v-41q-13 3 -39 3v-114q32 10 49 17q-1 -10 -1 -18q0 -10 2 -19q-73 -26 -126 -54q-4 23 -12 51zM467 98q-15 13 -43 18q43 32 67 74.5t24 147.5q0 42 -2 101q-2 57 -4 67q14 -3 34 -3h15q5 0 5 -3t-5 -6q-8 -6 -8 -47
q0 -120 -2 -166q-3 -48 -19 -90q-18 -42 -62 -93zM728 111q-24 3 -95 3q-70 0 -96 -3v41q33 -3 77 -3v149q-27 -1 -41 -3v41q20 -3 41 -3v110q-31 -1 -43 -3v42q24 -3 71.5 -3t72.5 3v-42q-25 3 -62 3v-111q34 1 57 3v-40q-19 3 -57 3v-149q48 0 75 3v-41z" />
    <glyph glyph-name="uniE637" unicode="&#xe637;" 
d="M817 875h-608q-25 0 -43 -18t-18 -43v-859q0 -25 18 -43t43 -18h608q26 0 44 18t18 43v859q0 25 -18 43t-44 18zM323 19q-23 0 -39 16t-16 39t16 39.5t39 16.5t39 -16.5t16 -39.5t-16 -39t-39 -16zM323 210q-23 0 -39 16t-16 39t16 39.5t39 16.5t39 -16.5t16 -39.5
t-16 -39t-39 -16zM323 400q-23 0 -39 16.5t-16 39.5t16 39t39 16t39 -16t16 -39t-16 -39.5t-39 -16.5zM514 19q-23 0 -39.5 16t-16.5 39t16.5 39.5t39.5 16.5t39 -16.5t16 -39.5t-16 -39t-39 -16zM514 210q-23 0 -39.5 16t-16.5 39t16.5 39.5t39.5 16.5t39 -16.5t16 -39.5
t-16 -39t-39 -16zM514 400q-23 0 -39.5 16.5t-16.5 39.5t16.5 39t39.5 16t39 -16t16 -39t-16 -39.5t-39 -16.5zM704.5 19q-22.5 0 -39 16t-16.5 39t16.5 39.5t39 16.5t39 -16.5t16.5 -39.5t-16.5 -39t-39 -16zM704.5 210q-22.5 0 -39 16t-16.5 39t16.5 39.5t39 16.5
t39 -16.5t16.5 -39.5t-16.5 -39t-39 -16zM704.5 400q-22.5 0 -39 16.5t-16.5 39.5t16.5 39t39 16t39 -16t16.5 -39t-16.5 -39.5t-39 -16.5zM776 650q0 -12 -8.5 -20.5t-19.5 -8.5h-466q-12 0 -20.5 8.5t-8.5 20.5v89q0 12 8.5 20t20.5 8h466q11 0 19.5 -8t8.5 -20v-89z" />
    <glyph glyph-name="uniE639" unicode="&#xe639;" 
d="M907 -110h-790q-42 0 -70.5 25t-28.5 59v820q0 35 28.5 59.5t70.5 24.5h790q42 0 70.5 -25t28.5 -59v-818q0 -35 -29 -60.5t-70 -25.5zM117 845q-26 0 -43 -15t-17 -36v-818q0 -21 17 -36t43 -15h790q26 0 43 15t17 36v818q0 21 -17 36t-43 15h-790zM294 -100q-7 0 -13 5
t-6 13v918q0 7 6 12.5t13 5.5q8 0 14 -5t6 -13v-918q0 -7 -5.5 -12.5t-14.5 -5.5zM820 652l-79 106l-79 -106v106v106h79h79v-106v-106z" />
    <glyph glyph-name="uniE646" unicode="&#xe646;" 
d="M966 -4q58 -21 58 -22l-13 -51q-26 4 -66 12q-17 -33 -48 -55l32 -67l-43 -25q-18 26 -44 65q-33 -9 -64 -6l-24 -59l-52 12q5 27 14 67q-22 12 -40 30l-64 -32l-24 44q21 16 54 39q-17 37 -16 76l-57 22l13 51q23 -3 57 -10q12 30 36 55l-31 66l43 24q16 -21 38 -54
q44 20 90 15l24 59l52 -13q-5 -27 -13 -67q33 -18 55 -49l66 32l25 -44q-26 -19 -64 -45q10 -36 6 -70zM825.5 131.5q-45.5 12.5 -86 -11.5t-53 -70.5t11 -88t69.5 -54t86.5 11.5t53 70.5t-11.5 88t-69.5 54zM585 261l60 -72l-53 -54q-30 25 -74 64q-52 -33 -111 -41
l-9 -100h-76q-4 41 -8 103q-55 12 -103 46l-82 -72l-53 54q27 35 70 85q-34 48 -45 104l-101 9v77q38 4 98 9q8 60 40 113l-62 76l53 54q28 -24 70 -61q52 41 115 54l8 103h76q4 -39 8 -99q68 -10 124 -50l62 53l53 -54q-20 -25 -52 -63q40 -57 49 -127l98 -8v-77
q-40 -4 -101 -8q-13 -65 -54 -118zM369.5 638q-82.5 0 -140.5 -59.5t-58 -143.5t58 -143.5t140.5 -59.5t141 59.5t58.5 143.5t-58.5 143.5t-141 59.5z" />
    <glyph glyph-name="uniE652" unicode="&#xe652;" 
d="M608 832h-128q-40 0 -68 -28t-28 -68t28 -68t68 -28h128q40 0 68 28t28 68t-28 68t-68 28zM608 704h-128q-13 0 -22.5 9.5t-9.5 22.5t9.5 22.5t22.5 9.5h128q13 0 22.5 -9.5t9.5 -22.5t-9.5 -22.5t-22.5 -9.5zM608 512h-128q-40 0 -68 -28t-28 -68t28 -68t68 -28h128
q40 0 68 28t28 68t-28 68t-68 28zM608 384h-128q-13 0 -22.5 9.5t-9.5 22.5t9.5 22.5t22.5 9.5h128q13 0 22.5 -9.5t9.5 -22.5t-9.5 -22.5t-22.5 -9.5zM608 192h-128q-40 0 -68 -28t-28 -68t28 -68t68 -28h128q40 0 68 28t28 68t-28 68t-68 28zM608 64h-128q-13 0 -22.5 9.5
t-9.5 22.5t9.5 22.5t22.5 9.5h128q13 0 22.5 -9.5t9.5 -22.5t-9.5 -22.5t-22.5 -9.5zM256 128q-53 0 -90.5 37.5t-37.5 90.5t37.5 90.5t90.5 37.5h64v64h-64q-80 0 -136 -56t-56 -136t56 -136t136 -56v-64l96 96l-96 96v-64zM832 768h-64v-64h64q53 0 90.5 -37.5t37.5 -90.5
t-37.5 -90.5t-90.5 -37.5v64l-96 -96l96 -96v64q80 0 136 56t56 136t-56 136t-136 56z" />
    <glyph glyph-name="uniE654" unicode="&#xe654;" 
d="M90 416q0 124 87.5 212t210.5 88q64 0 120 -25t98 -70l28 28q-47 50 -110.5 77.5t-134.5 27.5q-92 0 -170 -45t-123 -123t-45 -170q0 -126 82 -220.5t205 -112.5l12 34l1 3q-111 14 -186 98.5t-75 197.5zM428 416q0 18 -14 29v153h-38v-145q-19 -7 -24 -21t-1 -24l4 -10
l-93 -96l30 -25l97 101q16 0 27.5 11.5t11.5 26.5zM773 286q33 22 52 56t19 74q0 65 -46 110.5t-110.5 45.5t-110 -45.5t-45.5 -110.5q0 -40 18.5 -74t51.5 -56q-88 -27 -144.5 -102.5t-56.5 -169.5h39q0 102 72.5 174.5t175 72.5t174.5 -72.5t72 -174.5h40
q0 94 -56.5 169.5t-144.5 102.5zM687.5 300q-48.5 0 -83 34t-34.5 82.5t34.5 83t83 34.5t82.5 -34.5t34 -83t-34 -82.5t-82.5 -34z" />
    <glyph glyph-name="uniE659" unicode="&#xe659;" 
d="M512 -76q-93 0 -178.5 36.5t-147 98t-98 147t-36.5 178.5t36.5 178.5t98 147t147 98t178.5 36.5t178.5 -36.5t147 -98t98 -147t36.5 -178.5t-36.5 -178.5t-98 -147t-147 -98t-178.5 -36.5zM512 800q-113 0 -209 -55.5t-151.5 -151.5t-55.5 -209t55.5 -209t151.5 -151.5
t209 -55.5t209 55.5t151.5 151.5t55.5 209t-55.5 208.5t-151.5 151.5t-209 56zM624.5 545q16.5 0 28 12t11.5 28v40q0 16 -11.5 28t-28 12t-28.5 -12t-12 -28v-40q0 -16 12 -28t28.5 -12zM681 609v-21q0 -29 -14 -46.5t-42.5 -17.5t-42.5 17.5t-14 46.5v21h-112v-21
q0 -28 -14 -46t-42.5 -18t-42.5 17.5t-14 46.5l1 21h-85v-21v-485h20h466h20v485v21h-84zM737 131h-450v365h450v-365zM399.5 545q16.5 0 28.5 12t12 28v40q0 16 -12 28t-28.5 12t-28.5 -12t-12 -28v-40q0 -16 12 -28t28.5 -12zM362 386q1 -1 3 -1t4 2l10 10l49 51q1 1 1 3
t-2 4l-8 8q-2 1 -4 1t-3 -1l-27 -30q-18 -20 -21 -20q-2 0 -7 5l-11 10q-1 1 -3.5 1t-3.5 -1l-7 -8q-1 -1 -1 -3t1 -4zM502 386q2 -1 4 -1t4 2l10 10l48 51q2 1 2 3t-2 4l-8 8q-2 1 -5 1q-1 0 -2 -1l-27 -30q-19 -20 -22 -20q-1 0 -6 5l-11 10q-2 1 -4 1t-3 -1l-7 -8
q-2 -1 -1.5 -3t1.5 -4zM638 386q2 -1 4 -1t3 2l11 10l48 51q2 1 2 3t-2 4l-9 8q-1 1 -4 1q-1 0 -3 -1l-26 -30q-19 -20 -22 -20q-1 0 -6 5l-11 10q-2 1 -4 1t-4 -1l-6 -8q-2 -1 -2 -3t2 -4zM360 286q2 -1 4 -1t3 1l11 11l48 50q2 2 2 4t-2 3l-9 9q-1 1 -4 1q-1 0 -3 -1
l-26 -31q-19 -19 -22 -19q-1 0 -6 4l-11 11q-2 1 -4 1t-3 -2l-7 -7q-2 -1 -2 -3t2 -4zM360 185q2 -1 4 -1t3 2l11 10v1l48 50q2 1 2 3t-2 4l-9 8q-1 1 -4 1q-1 0 -3 -1l-26 -30q-19 -20 -22 -20q-1 0 -6 5l-11 10q-2 1 -4 1t-3 -1l-7 -8q-2 -1 -2 -3t2 -4zM501 286
q2 -1 4 -1t3 1l10 11l49 50q1 2 1 4t-1 3l-9 9q-1 1 -4 1q-1 0 -3 -1l-27 -31q-18 -19 -21 -19q-1 0 -7 4l-11 11q-1 1 -3 1t-4 -2l-7 -7q-1 -1 -1 -3t2 -4zM637 286q1 -1 3 -1t4 1l10 11l49 50q1 2 1 4t-1 3l-9 9q-2 1 -4 1t-3 -1l-27 -31q-18 -19 -21 -19q-2 0 -7 4
l-11 11q-1 1 -3.5 1t-3.5 -2l-7 -7q-1 -1 -1 -3t1 -4zM644 244h-20v-57h20h16h21v57h-21h-16zM484 244v-21v-36h20h16h20v36v21h-56z" />
    <glyph glyph-name="uniE660" unicode="&#xe660;" 
d="M878 259l-69 -116h49v-35h-59v-26h59v-36h-59v-49h-54v49h-61v36h61v26h-61v35h48l-66 116h56q45 -96 49 -105q0 1 1 4t1 6q4 8 23 54l21 43l61 -2v0zM771 389q-105 0 -179.5 -74t-74.5 -179q0 -106 74 -180t179.5 -74t179.5 74t74 179.5t-74 179.5t-179 74zM771 -95
q-95 0 -163 67.5t-68 163.5t67.5 163t163.5 67t163 -67t67 -163q0 -95 -67.5 -163t-162.5 -68zM131 699h483v-87h-483v87zM131 512h345v-87h-345v87zM131 323h207v-87h-207v87zM492 -23h-441v870h725v-363q20 0 51 -5v384q0 13 -10 23t-23 10h-761q-13 0 -23 -10t-10 -23
v-904q0 -13 10 -23t23 -10h502q-42 48 -43 51z" />
    <glyph glyph-name="uniE67F" unicode="&#xe67f;" 
d="M916 748h-806q-30 0 -50.5 -21t-20.5 -50v-582q0 -30 20.5 -50.5t50.5 -20.5h332v-128h-108q-11 0 -18.5 -7.5t-7.5 -18t7.5 -18t18.5 -7.5h358q11 0 18.5 7.5t7.5 18t-7.5 18t-18.5 7.5h-109v128h333q29 0 49.5 20.5t20.5 50.5v582q0 29 -20.5 50t-49.5 21zM110 696h806
q8 0 13.5 -5.5t5.5 -13.5v-467h-845v467q0 8 6 13.5t14 5.5zM532 -104h-38v128h38v-128zM916 75h-806q-8 0 -14 6t-6 14v64h845v-64q0 -8 -5.5 -14t-13.5 -6z" />
    <glyph glyph-name="uniE6AF" unicode="&#xe6af;" 
d="M855 575q-12 0 -20.5 9t-8.5 22v51q0 43 -26 73t-63 30h-534q-37 0 -63 -30t-26 -73v-534q0 -42 26 -72.5t63 -30.5h119q12 0 20.5 -9t8.5 -21.5t-8.5 -21.5t-20.5 -9h-119q-61 0 -104.5 48t-43.5 116v534q0 68 43.5 116.5t104.5 48.5h534q61 0 104.5 -48.5t43.5 -116.5
v-51q0 -13 -8.5 -22t-21.5 -9zM174 359q0 13 8.5 22t20.5 9h178q12 0 21 -9t9 -21.5t-9 -21.5t-21 -9h-178q-12 0 -20.5 9t-8.5 21zM174 544q0 13 8.5 22t20.5 9h237q13 0 21.5 -9t8.5 -21.5t-8.5 -22t-21.5 -9.5h-237q-12 0 -20.5 9.5t-8.5 21.5zM604 228q-35 26 -55 65
t-20 85q0 76 52.5 130.5t126 54.5t125.5 -54.5t52 -130.5q0 -46 -20 -85t-54 -65q70 -36 116.5 -108t46.5 -143q0 -13 -8.5 -22t-21 -9t-21 9t-8.5 22q0 44 -27.5 93.5t-77 86t-103.5 36.5t-103.5 -36.5t-76.5 -86t-27 -93.5q0 -13 -9 -22t-21 -9t-21 9t-9 22q0 71 46.5 143
t117.5 108zM826 378q0 51 -35 87t-84 36t-83.5 -36t-34.5 -87t34.5 -87t83.5 -36t84 36t35 87zM826 378z" />
    <glyph glyph-name="uniE6EF" unicode="&#xe6ef;" 
d="M694 -128h-364q-90 0 -166 44t-120 120t-44 166v364q0 90 44 166t120 120t166 44h364q90 0 166 -44t120 -120t44 -166v-364q0 -90 -44 -166t-120 -120t-166 -44zM330 844q-115 0 -196.5 -81.5t-81.5 -196.5v-364q0 -115 81.5 -196.5t196.5 -81.5h364q115 0 196.5 81.5
t81.5 196.5v364q0 115 -81.5 196.5t-196.5 81.5h-364zM745 20l9 20l-30 45h1l23 21q11 10 0 20h-69q-11 -10 0 -20l23 -21l-29 -45l14 -20q-75 4 -125 24t-50 47q0 37 33 52t97 18q22 31 15 54q-32 25 -45 69q-3 -1 -4 -1q-7 0 -11.5 4.5t-4.5 10.5v28q0 6 4.5 10t10.5 4
q5 50 36.5 83t74.5 33t74.5 -33.5t36.5 -82.5q3 1 5 1q7 0 11.5 -4.5t4.5 -10.5v-28q0 -6 -4.5 -10.5t-11.5 -4.5q-5 0 -9 3q-15 -53 -58 -78q-2 -21 17 -46q67 -3 101.5 -17.5t34.5 -53.5q0 -27 -50 -47t-125 -24zM716 579q0 -6 -4.5 -10t-10.5 -4t-10 4t-4 10t4 10t10 4
t10.5 -4t4.5 -10zM629 633.5q0 -5.5 -4.5 -9.5t-10.5 -4t-10.5 4t-4.5 9.5t4.5 9.5t10.5 4t10.5 -4t4.5 -9.5zM264 484q-6 0 -10 4t-4 9.5t4 9.5t10 4t10.5 -4t4.5 -9.5t-4.5 -9.5t-10.5 -4zM264 293q-6 0 -10 4t-4 9.5t4 9.5t10 4t10.5 -4t4.5 -9.5t-4.5 -9.5t-10.5 -4z
M323 565q-6 0 -10.5 4t-4.5 10t4.5 10t10.5 4t10 -4t4 -10t-4 -10t-10 -4zM323 211q-6 0 -10.5 4t-4.5 9.5t4.5 9.5t10.5 4t10 -4t4 -9.5t-4 -9.5t-10 -4zM425 170.5q0 -5.5 -4.5 -9.5t-10.5 -4t-10.5 4t-4.5 9.5t4.5 9.5t10.5 4t10.5 -4t4.5 -9.5zM395 633.5q0 5.5 4.5 9.5
t10.5 4t10.5 -4t4.5 -9.5t-4.5 -9.5t-10.5 -4t-10.5 4t-4.5 9.5zM527 565h29q6 0 10 -4t4 -9v-137v-27q0 -5 -4 -9t-10 -4h-204q-6 0 -10.5 4t-4.5 9v27q0 6 4.5 10t10.5 4h160v123q0 5 4.5 9t10.5 4zM847 538q-21 0 -35 18l-2 -1q-43 64 -114 103t-155 43v-54h-29v54
q-130 -5 -222 -91.5t-98 -207.5h58v-27h-57q4 -94 61 -168.5t148 -108.5l-1 -1q24 -12 24 -36q0 -17 -13 -29t-31 -12l-1 -2q-2 1 -7 3t-6 2l-6 2q-115 46 -186 144.5t-71 218.5q0 108 56.5 199t154 143.5t212.5 52.5q106 0 198 -46.5t150 -126.5q9 -7 13 -18v-1q3 -7 3 -12
q0 -17 -13 -29t-31 -12z" />
    <glyph glyph-name="uniE7A2" unicode="&#xe7a2;" 
d="M1308 9zM843.5 125q-10.5 0 -18 -7.5t-7.5 -18.5v-69q0 -17 -12 -29t-29 -12h-620q-17 0 -29 12t-12 29v708q0 17 12 29t29 12h620q17 0 29 -12t12 -29v-172q0 -11 7.5 -18.5t18 -7.5t18 7.5t7.5 18.5v172q0 38 -27 65t-65 27h-620q-38 0 -65 -27t-27 -65v-708
q0 -38 27 -65t65 -27h620q38 0 65 27t27 65v69q0 11 -7.5 18.5t-18 7.5zM709 619.5q0 10.5 -7.5 18t-18.5 7.5h-433q-10 0 -17.5 -7.5t-7.5 -18t7.5 -18t17.5 -7.5h433q11 0 18.5 7.5t7.5 18zM250 502q-10 0 -17.5 -7.5t-7.5 -18t7.5 -18t17.5 -7.5h200q11 0 18.5 7.5
t7.5 18t-7.5 18t-18.5 7.5h-200zM866 510h-266q-39 0 -67.5 -27t-28.5 -65v-188q0 -33 22.5 -58.5t55.5 -31.5l35 -84q5 -14 20 -16h3q13 0 20 10l70 88h136q40 0 68 27t28 65v188q0 38 -28 65t-68 27zM911 230q0 -17 -13 -29t-32 -12h-149q-12 0 -20 -10l-50 -63l-23 57
q-6 16 -24 16t-31.5 12t-13.5 29v188q0 17 13.5 29t31.5 12h266q19 0 32 -12t13 -29v-188zM733 325zM699 325q0 14 10 23.5t24 9.5t24 -9.5t10 -23.5t-10 -24t-24 -10t-24 10t-10 24zM634 325zM600 325q0 14 10 23.5t24 9.5t24 -9.5t10 -23.5t-10 -24t-24 -10t-24 10t-10 24
zM832 325zM799 325q0 14 9.5 23.5t23.5 9.5t24 -9.5t10 -23.5t-10 -24t-24 -10t-23.5 10t-9.5 24z" />
    <glyph glyph-name="uniEB85" unicode="&#xeb85;" horiz-adv-x="1025" 
d="M132 734v-143q0 -9 6.5 -15.5t15.5 -6.5h704q10 0 16 6.5t6 15.5v143q0 9 -6 15.5t-16 6.5h-704q-9 0 -15.5 -6.5t-6.5 -15.5zM1024 458q0 9 -6.5 15.5t-15.5 6.5h-848q-9 0 -15.5 -6.5t-6.5 -15.5v-143q0 -9 6.5 -15.5t15.5 -6.5h848q9 0 15.5 6.5t6.5 15.5v143z
M713 182q0 9 -6.5 15.5t-16.5 6.5h-536q-9 0 -15.5 -6.5t-6.5 -15.5v-143q0 -9 6.5 -15.5t15.5 -6.5h536q10 0 16.5 6.5t6.5 15.5v143zM74 -92v952q0 15 -11 25.5t-26 10.5t-26 -10.5t-11 -25.5v-952q0 -15 11 -25.5t26 -10.5t26 10.5t11 25.5z" />
    <glyph glyph-name="uF0041" unicode="&#xf0041;" 
d="M876 646h-728q-35 0 -59.5 -24.5t-24.5 -59.5v-504q0 -35 24.5 -59.5t59.5 -24.5h728q35 0 59.5 24.5t24.5 59.5v504q0 35 -24.5 59.5t-59.5 24.5zM148 590h728q11 0 19.5 -8.5t8.5 -19.5v-84h-784v84q0 11 8.5 19.5t19.5 8.5zM876 30h-728q-11 0 -19.5 8.5t-8.5 19.5
v252h784v-252q0 -11 -8.5 -19.5t-19.5 -8.5zM176 198h56v-112h-56v112zM288 198h56v-112h-56v112zM400 198h56v-112h-56v112z" />
  </font>
</defs>
</svg>
